<svg width="24" height="22" viewBox="0 0 24 22" fill="none" xmlns="http://www.w3.org/2000/svg">
<path fill-rule="oddeven" clip-rule="oddeven" d="M21.6 0H2.4C1.08 0 0 1.08 0 2.4V19.2C0 20.52 1.08 21.6 2.4 21.6H21.6C22.92 21.6 24 20.52 24 19.2V2.4C24 1.08 22.92 0 21.6 0ZM8.4 16.8H4.8C4.14 16.8 3.6 16.26 3.6 15.6C3.6 14.94 4.14 14.4 4.8 14.4H8.4C9.06 14.4 9.6 14.94 9.6 15.6C9.6 16.26 9.06 16.8 8.4 16.8ZM8.4 12H4.8C4.14 12 3.6 11.46 3.6 10.8C3.6 10.14 4.14 9.6 4.8 9.6H8.4C9.06 9.6 9.6 10.14 9.6 10.8C9.6 11.46 9.06 12 8.4 12ZM8.4 7.2H4.8C4.14 7.2 3.6 6.66 3.6 6C3.6 5.34 4.14 4.8 4.8 4.8H8.4C9.06 4.8 9.6 5.34 9.6 6C9.6 6.66 9.06 7.2 8.4 7.2ZM20.04 9.744L16.236 13.548C15.768 14.016 15 14.016 14.532 13.548L12.84 11.844C12.372 11.376 12.372 10.62 12.84 10.152C13.308 9.684 14.064 9.684 14.532 10.152L15.384 11.004L18.348 8.04C18.816 7.572 19.572 7.572 20.04 8.04L20.052 8.052C20.508 8.52 20.508 9.288 20.04 9.744Z"  style="fill:#ffffff; stroke:#000000" />
</svg>
